<?xml version="1.0" encoding="utf-8"?>
<!-- Generator: Adobe Illustrator 23.0.3, SVG Export Plug-In . SVG Version: 6.00 Build 0)  -->
<svg version="1.1" id="Layer_1" xmlns="http://www.w3.org/2000/svg" xmlns:xlink="http://www.w3.org/1999/xlink" x="0px" y="0px"
	 viewBox="0 0 75 75" style="enable-background:new 0 0 75 75;" xml:space="preserve">
<style type="text/css">
	.st0{fill:none;stroke:#006FAF;stroke-width:2;stroke-miterlimit:10;}
	.st1{fill:#006FAF;}
</style>
<circle class="st0" cx="37.5" cy="37.5" r="36"/>
<g>
	<g>
		<path class="st1" d="M39.8,33.5l2.3,4l-2.3,4h-4.6l-2.3-4l2.3-4H39.8 M40.4,32.5h-5.8l-2.9,5l2.9,5h5.8l2.9-5L40.4,32.5L40.4,32.5
			z"/>
	</g>
	<g>
		<path class="st1" d="M30.4,27.9l2.3,4l-2.3,4h-4.6l-2.3-4l2.3-4H30.4 M31,26.9h-5.8l-2.9,5l2.9,5H31l2.9-5L31,26.9L31,26.9z"/>
	</g>
	<g>
		<path class="st1" d="M39.7,44.5l2.3,4l-2.3,4h-4.6l-2.3-4l2.3-4H39.7 M40.3,43.5h-5.8l-2.9,5l2.9,5h5.8l2.9-5L40.3,43.5L40.3,43.5
			z"/>
	</g>
	<g>
		<path class="st1" d="M30.3,38.8l2.3,4l-2.3,4h-4.6l-2.3-4l2.3-4H30.3 M30.9,37.8h-5.8l-2.9,5l2.9,5h5.8l2.9-5L30.9,37.8L30.9,37.8
			z"/>
	</g>
	<g>
		<path class="st1" d="M39.9,22.5l2.3,4l-2.3,4h-4.6l-2.3-4l2.3-4H39.9 M40.5,21.5h-5.8l-2.9,5l2.9,5h5.8l2.9-5L40.5,21.5L40.5,21.5
			z"/>
	</g>
	<g>
		<path class="st1" d="M49.3,28l2.3,4l-2.3,4h-4.6l-2.3-4l2.3-4H49.3 M49.9,27h-5.8l-2.9,5l2.9,5h5.8l2.9-5L49.9,27L49.9,27z"/>
	</g>
	<g>
		<path class="st1" d="M49.3,38.9l2.3,4l-2.3,4h-4.6l-2.3-4l2.3-4H49.3 M49.9,37.9h-5.8l-2.9,5l2.9,5h5.8l2.9-5L49.9,37.9L49.9,37.9
			z"/>
	</g>
</g>
</svg>
